HIERARCHY
ROOT root
{
	OFFSET 0.000000 0.000000 0.000000
	CHANNELS 6 Xposition Yposition Zposition Xrotation Yrotation Zrotation
	JOINT lhip
	{
		OFFSET 0.070959 -0.088275 -0.004614
		CHANNELS 3 Xrotation Yrotation Zrotation
		JOINT lknee
		{
			OFFSET 0.025989 -0.336814 -0.009523
			CHANNELS 3 Xrotation Yrotation Zrotation
			JOINT lankle
			{
				OFFSET -0.010352 -0.351866 -0.041202
				CHANNELS 3 Xrotation Yrotation Zrotation
				JOINT ltoe
				{
					OFFSET 0.024024 -0.050995 0.108131
					CHANNELS 3 Xrotation Yrotation Zrotation
					End Site
					{
						OFFSET 0.000000 0.000000 0.000000
					}
				}
			}
		}
	}
	JOINT rhip
	{
		OFFSET -0.068819 -0.088158 -0.002027
		CHANNELS 3 Xrotation Yrotation Zrotation
		JOINT rknee
		{
			OFFSET -0.030877 -0.343190 -0.011487
			CHANNELS 3 Xrotation Yrotation Zrotation
			JOINT rankle
			{
				OFFSET 0.012578 -0.352772 -0.039984
				CHANNELS 3 Xrotation Yrotation Zrotation
				JOINT rtoe
				{
					OFFSET -0.021059 -0.043197 0.111512
					CHANNELS 3 Xrotation Yrotation Zrotation
					End Site
					{
						OFFSET 0.000000 0.000000 0.000000
					}
				}
			}
		}
	}
	JOINT lowerback
	{
		OFFSET -0.002378 0.101997 -0.024726
		CHANNELS 3 Xrotation Yrotation Zrotation
		JOINT upperback
		{
			OFFSET 0.003623 0.126344 -0.002391
			CHANNELS 3 Xrotation Yrotation Zrotation
			JOINT chest
			{
				OFFSET 0.002149 0.049042 0.029168
				CHANNELS 3 Xrotation Yrotation Zrotation
				JOINT lowerneck
				{
					OFFSET -0.001307 0.203584 -0.053976
					CHANNELS 3 Xrotation Yrotation Zrotation
					JOINT upperneck
					{
						OFFSET 0.002365 0.059131 0.047952
						CHANNELS 3 Xrotation Yrotation Zrotation
						End Site
						{
							OFFSET 0.000000 0.000000 0.000000
						}
					}
				}
				JOINT lclavicle
				{
					OFFSET 0.075812 0.117092 -0.037717
					CHANNELS 3 Xrotation Yrotation Zrotation
					JOINT lshoulder
					{
						OFFSET 0.084646 0.028877 -0.008617
						CHANNELS 3 Xrotation Yrotation Zrotation
						JOINT lelbow
						{
							OFFSET 0.232714 -0.006813 -0.026627
							CHANNELS 3 Xrotation Yrotation Zrotation
							JOINT lwrist
							{
								OFFSET 0.219618 0.007356 0.000161
								CHANNELS 3 Xrotation Yrotation Zrotation
								End Site
								{
									OFFSET 0.000000 0.000000 0.000000
								}
							}
						}
					}
				}
				JOINT rclavicle
				{
					OFFSET -0.077496 0.114750 -0.042857
					CHANNELS 3 Xrotation Yrotation Zrotation
					JOINT rshoulder
					{
						OFFSET -0.088601 0.029755 -0.011487
						CHANNELS 3 Xrotation Yrotation Zrotation
						JOINT relbow
						{
							OFFSET -0.227785 -0.009114 -0.019501
							CHANNELS 3 Xrotation Yrotation Zrotation
							JOINT rwrist
							{
								OFFSET -0.226418 0.008456 -0.002534
								CHANNELS 3 Xrotation Yrotation Zrotation
								End Site
								{
									OFFSET 0.000000 0.000000 0.000000
								}
							}
						}
					}
				}
			}
		}
	}
}
MOTION
Frames: 17
Frame Time: 0.033333
-0.010051 0.029040 0.771518 -93.408509 -1.953640 178.230761 -24.434984 -4.967164 -4.119075 13.141845 7.913663 -4.861327 -10.194291 16.976353 14.246201 -0.008125 -0.251240 -0.227331 -7.547260 -3.232373 -6.643715 47.413820 -6.458497 2.820067 21.830789 -9.913843 7.319001 -0.056062 -0.215099 0.167406 7.257663 7.108912 0.739055 3.697807 -2.333657 0.403850 -6.527271 0.705781 -1.079764 -7.216184 15.966049 4.750037 16.502417 19.684165 -11.439085 -1.430292 1.310814 -24.006152 10.198903 -4.236445 -69.324859 -9.019775 -26.164042 24.565259 0.294421 -6.838722 -38.218667 -2.502169 6.694929 23.008711 -1.644463 17.465755 50.578120 -2.192772 20.126265 -22.480321 8.142857 6.311043 30.808243 
-0.018668 0.057703 0.772889 -92.503013 -4.103902 177.796824 -20.969716 -4.767111 -5.118227 13.001272 4.517927 -4.094214 -11.864542 17.160402 15.494598 -0.021308 -0.327047 -0.383436 -11.504695 -1.498824 -6.242473 55.005289 -5.384401 3.268630 19.655264 -9.954127 6.220320 -0.100334 -0.430499 0.371894 8.045362 5.532166 0.703453 3.620870 -1.747292 0.502424 -6.160367 0.586420 -0.850865 -7.351416 16.146463 4.627721 16.652034 19.149386 -11.317173 -1.619627 1.371168 -23.923247 9.819775 -4.540269 -68.103051 -8.553951 -29.298823 24.083547 0.775306 -7.047865 -37.140669 -2.418776 6.300518 24.019262 0.067824 16.786314 50.965428 -0.407877 20.298511 -21.801031 8.307176 6.236655 31.475459 
-0.028159 0.087467 0.776090 -91.460685 -6.862792 177.266967 -16.843174 -4.245080 -5.249966 11.792007 1.671551 -3.333273 -12.570104 17.338410 15.617214 0.078873 -0.574585 -0.507234 -14.761565 -0.321150 -5.323498 58.823438 -4.467727 3.899187 15.989162 -9.977634 5.311631 -0.093798 -0.526612 0.550057 8.369165 3.650615 1.069672 3.930500 -1.743841 1.056809 -6.090095 0.319183 -0.678143 -7.252232 16.717421 4.764968 17.117781 18.790209 -11.458940 -1.890878 1.049798 -24.174733 8.847370 -5.591309 -67.092516 -8.282654 -31.323045 23.937208 1.285501 -7.331259 -35.801653 -1.926812 6.094587 25.023280 1.487437 16.248183 51.782941 0.058456 18.623922 -21.428400 8.474343 6.036225 31.280230 
-0.036336 0.112476 0.778389 -90.619827 -10.128108 176.853112 -13.437734 -4.435764 -5.631292 11.121646 -1.777675 -2.500982 -13.658171 17.007535 15.662565 0.107964 -0.528010 -0.647240 -18.279754 0.506881 -4.438318 59.883891 -4.091151 4.705968 12.145037 -10.373576 4.404417 -0.028945 -0.443280 0.673702 8.747938 2.042487 1.134600 4.028718 -1.946779 1.660222 -5.950287 -0.111647 -0.481408 -6.689982 17.022036 4.572848 17.259056 18.111503 -11.202025 -2.192529 0.625946 -23.965027 7.768078 -7.463320 -66.198002 -6.949471 -33.387578 24.201678 2.294141 -7.501607 -34.574573 -1.634740 5.597327 25.581681 2.759128 15.708857 52.612453 0.647607 17.493434 -21.174107 8.886194 5.777026 31.295082 
-0.044272 0.136223 0.780249 -89.690418 -13.470473 176.535094 -10.437142 -4.888681 -5.934251 11.347814 -5.159502 -1.722448 -14.953618 16.343913 15.537508 0.014385 -0.484512 -0.679884 -21.636922 1.860568 -3.325538 58.509078 -3.676050 4.493375 8.125095 -10.603390 3.540406 0.140279 -0.496064 0.676182 9.253587 0.791641 1.186953 4.295699 -2.127463 2.133562 -5.583402 -0.567600 -0.212678 -6.260655 17.106983 4.471161 17.215986 17.254841 -10.607239 -2.364227 0.596269 -23.626622 6.686355 -9.595116 -65.526669 -6.046687 -37.558757 24.586684 2.197129 -7.911350 -33.241569 -1.549594 5.142729 26.800021 3.510373 15.500946 53.616187 0.865895 16.572746 -21.252529 9.328571 5.122145 31.425517 
-0.051863 0.160619 0.781640 -88.829875 -16.661830 176.498425 -6.992662 -5.106008 -5.708566 10.558179 -7.773324 -0.890540 -16.154227 15.851767 15.058168 0.176084 -0.470549 -0.935219 -23.748231 2.490373 -2.254097 53.217138 -3.863419 4.280034 4.454535 -11.424166 2.784664 0.308900 -0.464505 0.631663 9.583731 -0.601747 1.119159 4.597788 -2.393508 2.653653 -5.475321 -1.058348 -0.261810 -5.520126 17.128762 4.476427 16.961190 16.366413 -9.742246 -2.342840 0.357834 -23.161317 5.634505 -11.529821 -64.616590 -4.694029 -40.036598 24.549072 2.075935 -8.611830 -32.268361 -1.002764 4.246823 26.993800 5.057718 14.612460 54.910777 0.651723 15.532542 -21.307574 8.540862 5.158265 31.762668 
-0.060369 0.184090 0.783092 -88.236391 -19.870192 176.711361 -4.030181 -5.316043 -5.588799 10.201872 -10.345087 -0.450007 -17.275501 15.299732 14.716763 0.172097 -0.433343 -1.211364 -25.567503 3.559030 -1.930520 46.736148 -3.463907 3.359558 1.769991 -11.218766 2.901372 0.552172 -0.362871 0.480044 9.795821 -1.589454 0.854056 4.673581 -2.668627 2.934222 -5.308043 -1.417472 -0.456870 -4.945072 17.409086 4.608517 16.748278 15.709185 -9.061708 -2.371239 0.598874 -22.613617 4.771533 -13.505523 -63.623440 -3.844203 -42.579176 24.914398 1.368701 -9.272460 -30.886083 -0.598168 3.223508 27.360291 6.257288 14.140855 55.915237 -0.204681 14.453989 -20.785079 7.605662 4.819744 31.557152 
-0.068889 0.207940 0.782724 -87.511123 -23.093080 177.171707 -1.124869 -5.251980 -5.653109 10.002348 -12.663456 0.073034 -18.341700 14.583602 14.461666 0.171378 -0.404355 -1.511810 -26.412118 4.519182 -1.382316 39.211679 -3.135548 2.481484 0.835245 -11.366530 3.059220 0.667725 -0.301553 0.439730 9.507125 -2.343430 0.592079 5.015258 -3.021178 2.775205 -5.091214 -1.465563 -0.330093 -4.259979 17.412084 4.379447 16.698267 15.057214 -8.274973 -2.297345 1.037975 -22.230801 3.942385 -14.816966 -62.649086 -2.457817 -45.616841 25.571553 2.082627 -9.904638 -30.065793 0.121255 1.904053 27.806513 7.966790 13.371104 57.032197 0.481223 13.393651 -21.087235 8.348245 4.299941 31.994823 
-0.078289 0.231771 0.780067 -86.857155 -25.823062 178.023104 2.092129 -4.994054 -5.840240 9.459990 -14.716960 0.326620 -19.500771 13.976895 14.354793 0.341709 -0.485001 -1.977074 -26.550280 5.189467 -1.250686 30.164388 -2.601493 1.736016 0.924375 -10.850656 4.057086 0.759588 -0.126157 0.413115 9.253440 -3.033445 0.022668 5.419004 -3.181017 2.602450 -5.007730 -1.787969 -0.296054 -3.589191 17.127814 4.343678 16.472002 14.700295 -7.464902 -2.407671 1.493567 -22.122259 3.462499 -15.476383 -61.411337 -1.642609 -47.726849 25.979993 2.340672 -10.725537 -28.754743 0.637105 0.711319 27.724926 9.399181 12.474952 57.478301 0.948905 13.254665 -20.766194 8.554957 4.061960 31.805428 
-0.087178 0.255315 0.777375 -86.536567 -27.935454 178.803008 4.314179 -4.668089 -5.742323 9.542343 -16.283417 0.431617 -20.706263 13.416733 14.281967 0.603116 -0.416042 -2.324961 -26.857063 5.616354 -1.574092 21.563287 -1.478447 1.108775 0.330548 -9.991876 4.905397 0.957526 0.063668 0.256806 8.581641 -3.543453 -0.848919 5.975527 -3.490514 2.267075 -4.854893 -2.106841 -0.236451 -3.026245 16.870699 4.268081 15.830403 14.204074 -6.659647 -2.294734 1.894363 -22.013873 3.161492 -15.969041 -59.573327 -0.772739 -49.205630 26.249298 3.531846 -11.278314 -27.458456 1.151550 -0.163764 27.639971 10.943332 11.141218 57.447182 1.977659 14.197372 -21.111587 9.052758 4.019231 31.975422 
-0.096350 0.279562 0.773289 -86.468585 -29.843770 179.192148 6.301766 -4.447302 -5.497417 9.621236 -17.928125 0.602921 -21.476961 12.929458 13.952380 0.784754 -0.398743 -2.534091 -27.431920 5.584055 -1.738425 15.909006 -0.515507 1.154857 -0.241630 -9.446048 5.388172 1.013541 0.077710 0.269727 8.251394 -4.095771 -1.039148 6.410288 -3.497526 2.230783 -4.584922 -2.299047 -0.361911 -2.741670 16.538871 4.053015 15.462769 13.650097 -6.069382 -2.035904 2.432252 -22.256168 3.298648 -16.018739 -58.178462 0.477276 -51.046242 27.149047 4.280732 -11.710192 -26.395447 1.495942 -1.267252 27.828182 12.019226 9.566057 57.019997 2.504778 14.943560 -21.007620 9.351029 4.052449 31.807483 
-0.103946 0.302396 0.769561 -87.165206 -31.551197 179.129259 7.461092 -4.094753 -4.861564 9.839571 -19.173981 0.714779 -21.631342 12.406103 13.382619 0.783647 -0.418462 -2.849329 -28.051956 5.486681 -1.750455 11.549164 0.314859 1.024791 0.331758 -8.627157 5.742677 1.262003 0.184908 0.199826 7.174333 -4.121088 -1.212760 6.564167 -3.671393 2.115355 -4.330570 -2.290774 -0.649856 -2.402475 16.255397 3.808562 14.838121 13.198261 -5.538846 -1.977656 2.885303 -22.396872 3.006387 -16.027123 -56.858090 1.047201 -50.104499 27.878572 5.050932 -11.776744 -26.257799 2.000897 -2.397090 27.873796 12.866361 8.408424 56.533270 3.231741 14.323850 -20.154758 9.100108 3.785621 32.368514 
-0.114038 0.328500 0.765382 -88.746865 -33.373432 178.194486 7.785070 -4.132795 -3.449340 10.456628 -20.389769 0.620668 -22.228254 12.015739 12.848030 0.882103 -0.352209 -3.093405 -29.115059 5.676936 -1.702449 10.489951 1.433691 1.159795 1.620660 -7.198906 6.453711 1.312100 0.297024 0.023141 5.346766 -4.423675 -1.478230 6.745986 -3.361258 2.039529 -4.345969 -2.573456 -0.886268 -2.143345 16.200177 3.951260 14.570402 12.917806 -5.614245 -1.280912 3.406010 -22.957440 2.888672 -15.929607 -56.422989 2.451467 -49.891551 29.039358 4.811127 -11.913456 -26.637864 2.424436 -3.396526 28.242308 13.421236 7.940513 56.313723 4.096325 14.630459 -20.367658 8.763836 3.789656 33.171027 
-0.122476 0.357801 0.763017 -89.938495 -34.691352 177.103842 8.088780 -4.458940 -1.609638 11.787367 -21.421136 0.859173 -21.916819 11.911472 11.647592 0.960385 -0.267816 -3.072261 -29.166645 5.545875 -1.211376 11.133829 1.578114 1.949203 1.239185 -7.103225 5.790761 1.352475 0.355747 -0.077134 3.726087 -4.429054 -1.200337 6.730702 -3.330043 2.289990 -4.449891 -2.868055 -1.172713 -1.523639 15.602839 4.001162 14.212313 12.319638 -5.655738 -0.454956 3.903414 -23.009416 2.322805 -15.226025 -56.503703 2.505817 -47.703788 29.338775 5.565053 -11.271772 -26.253368 2.646991 -4.421423 28.341529 13.628829 7.452492 56.382698 6.284256 15.719413 -20.619487 8.287039 4.407799 33.281397 
-0.131086 0.388990 0.763135 -90.635091 -35.562885 176.374141 8.138407 -4.510834 -0.462739 14.987508 -21.921536 1.027922 -21.313879 11.869913 10.728815 0.890510 -0.140043 -3.129291 -28.859455 5.570913 0.015073 12.865509 1.919458 1.954694 1.894004 -7.445946 4.682773 1.553010 0.392547 -0.097158 2.575461 -4.309177 -1.195177 6.571216 -3.154249 2.018150 -4.482755 -2.757606 -1.468132 -1.258935 15.728111 4.013857 14.063740 11.956273 -5.609513 0.325588 4.314840 -23.494660 2.900994 -14.361758 -56.059996 3.070156 -45.288922 29.028012 5.988294 -10.765640 -26.402186 2.828038 -4.989237 28.261897 13.559806 7.167602 56.199426 6.745579 15.996850 -20.191265 7.433535 4.720071 33.087524 
-0.140864 0.418769 0.765607 -90.539058 -36.309619 175.900303 8.587109 -4.501938 0.530993 18.019434 -21.993953 1.377838 -19.458596 11.993609 9.363755 0.846148 -0.110898 -3.057666 -27.580763 5.606160 1.317568 14.686247 2.150771 2.250816 2.443495 -7.760658 3.350699 1.886119 0.252353 0.308154 1.715365 -4.161529 -0.823790 6.858638 -2.935671 2.039911 -4.462329 -2.496613 -1.668750 -1.096400 15.881522 3.964472 14.157181 11.913939 -5.829967 0.772984 4.240443 -24.436877 3.403698 -13.729558 -56.440884 2.707462 -41.142940 28.462411 6.715324 -10.190748 -26.600813 2.674991 -4.893421 28.419245 13.070873 7.339594 55.783899 6.915947 15.549276 -20.334654 7.435729 4.551166 32.593489 
-0.151707 0.449218 0.770299 -90.135317 -36.810137 175.442332 8.301691 -4.146385 1.794764 22.651602 -20.769937 1.709556 -15.432993 12.109042 6.889992 0.694892 -0.095838 -2.976309 -25.177758 5.293963 2.234823 15.245244 2.206473 2.793428 1.507205 -7.837509 1.312481 2.176084 -0.078607 0.514090 0.776999 -3.760449 -0.082906 7.174394 -2.978984 2.144931 -4.537328 -2.155337 -1.528669 -0.947535 15.428922 3.765052 14.550912 11.825758 -6.091959 1.370916 4.073479 -25.334879 3.708662 -12.561348 -57.660598 2.461673 -36.524939 28.012146 7.714543 -9.313536 -26.781133 2.885979 -4.593300 28.296140 12.896036 7.301783 55.547305 8.880843 16.096192 -20.778369 7.470285 4.550474 32.534498 
